<?xml version="1.0" encoding="UTF-8" standalone="no"?>
<!-- Created with Inkscape (http://www.inkscape.org/) -->

<svg
   width="234"
   height="333.00003"
   id="svg2"
   version="1.1"
   inkscape:version="1.4 (86a8ad7, 2024-10-11)"
   sodipodi:docname="spades_ace.svg"
   inkscape:export-filename="C:\Users\fowle\OneDrive\Projects\Playing-Cards\fronts\png-096-dpi\spades_ace.png"
   inkscape:export-xdpi="95.999992"
   inkscape:export-ydpi="95.999992"
   xmlns:inkscape="http://www.inkscape.org/namespaces/inkscape"
   xmlns:sodipodi="http://sodipodi.sourceforge.net/DTD/sodipodi-0.dtd"
   xmlns="http://www.w3.org/2000/svg"
   xmlns:svg="http://www.w3.org/2000/svg"
   xmlns:rdf="http://www.w3.org/1999/02/22-rdf-syntax-ns#"
   xmlns:cc="http://creativecommons.org/ns#"
   xmlns:dc="http://purl.org/dc/elements/1.1/">
  <title
     id="title884">Ace of Spades Playing Card</title>
  <defs
     id="defs4" />
  <sodipodi:namedview
     id="base"
     pagecolor="#ffffff"
     bordercolor="#666666"
     borderopacity="1.0"
     inkscape:pageopacity="0.0"
     inkscape:pageshadow="2"
     inkscape:zoom="1.549743"
     inkscape:cx="120.9878"
     inkscape:cy="171.64136"
     inkscape:document-units="px"
     inkscape:current-layer="g1157"
     showgrid="false"
     inkscape:showpageshadow="false"
     showguides="true"
     inkscape:guide-bbox="true"
     inkscape:snap-global="true"
     inkscape:window-width="1456"
     inkscape:window-height="976"
     inkscape:window-x="2256"
     inkscape:window-y="658"
     inkscape:window-maximized="0"
     showborder="false"
     inkscape:snap-to-guides="false"
     fit-margin-top="0"
     fit-margin-left="0"
     fit-margin-right="0"
     fit-margin-bottom="0"
     inkscape:pagecheckerboard="0"
     inkscape:deskcolor="#d1d1d1">
    <inkscape:grid
       type="xygrid"
       id="grid3767"
       empspacing="5"
       visible="true"
       enabled="true"
       snapvisiblegridlinesonly="true"
       originx="0"
       originy="-6.8515539e-05"
       spacingy="1"
       spacingx="1"
       units="px" />
  </sodipodi:namedview>
  <metadata
     id="metadata7">
    <rdf:RDF>
      <cc:Work
         rdf:about="">
        <dc:format>image/svg+xml</dc:format>
        <dc:type
           rdf:resource="http://purl.org/dc/dcmitype/StillImage" />
        <dc:title>Ace of Spades Playing Card</dc:title>
        <cc:license
           rdf:resource="http://creativecommons.org/publicdomain/zero/1.0/" />
        <dc:date>2020-05-05</dc:date>
        <dc:creator>
          <cc:Agent>
            <dc:title>Daniel S. Fowler</dc:title>
          </cc:Agent>
        </dc:creator>
        <dc:rights>
          <cc:Agent>
            <dc:title>Public Domain</dc:title>
          </cc:Agent>
        </dc:rights>
        <dc:publisher>
          <cc:Agent>
            <dc:title>https://tekeye.uk</dc:title>
          </cc:Agent>
        </dc:publisher>
        <dc:language>en-GB</dc:language>
        <dc:subject>
          <rdf:Bag>
            <rdf:li>ace; spades; playing; card; black; white</rdf:li>
          </rdf:Bag>
        </dc:subject>
        <dc:description>An ace of spades playing card in black and white with a phrase.</dc:description>
      </cc:Work>
      <cc:License
         rdf:about="http://creativecommons.org/publicdomain/zero/1.0/">
        <cc:permits
           rdf:resource="http://creativecommons.org/ns#Reproduction" />
        <cc:permits
           rdf:resource="http://creativecommons.org/ns#Distribution" />
        <cc:permits
           rdf:resource="http://creativecommons.org/ns#DerivativeWorks" />
      </cc:License>
    </rdf:RDF>
  </metadata>
  <g
     id="g1157">
    <rect
       style="fill:#ffffff;fill-opacity:1;stroke:#808080;stroke-width:0.75590545;stroke-linecap:butt;stroke-linejoin:miter;stroke-miterlimit:4.30000019;stroke-dasharray:none;stroke-opacity:1"
       id="rect4266"
       width="233.24409"
       height="332.24411"
       x="0.37795272"
       y="0.37795272"
       ry="8.9457436"
       rx="8.9191856" />
    <path
       sodipodi:nodetypes="cccccccccccccccc"
       inkscape:connector-curvature="0"
       id="path2985-3-3-5-4-3"
       d="m 108.32353,199.67309 c 0,-1.66824 -0.0924,-2.87307 -0.0924,-4.54131 3.4487,0 7.18544,0 10.63412,0 0,-3.96545 0,-4.24592 0,-8.21139 -6.7318,0.2169 -14.01738,0.71685 -20.321708,-2.06095 -4.879857,-2.67822 -6.226351,-8.91266 -5.242487,-14.03808 0.842117,-5.78261 4.056822,-10.91785 8.250585,-14.87291 5.45733,-5.8373 12.41722,-9.77784 19.68345,-12.94845 7.41706,3.22423 14.53039,7.29373 20.05692,13.28493 4.97789,4.67795 8.29456,11.2895 8.19267,18.21177 0.10796,4.99649 -2.98707,10.27644 -8.09216,11.36673 -5.71111,1.58156 -11.49141,1.30097 -17.35423,1.05696 0,3.96547 0,4.24594 0,8.21139 3.44868,0 6.60936,0 10.05806,0 0,1.66824 0.0924,2.87307 0.0924,4.54131 -7.89686,-0.0556 -17.33586,-0.0556 -25.86526,0 z"
       style="fill:#000000;stroke:none;stroke-width:1" />
    <g
       style="fill:none;stroke:#000000;stroke-width:3.18132639;stroke-opacity:1"
       id="g4233"
       transform="matrix(0.07348588,0,0,0.07370838,-248.01731,214.23848)" />
    <g
       transform="matrix(0.07348588,0,0,0.07370838,-248.01728,214.23848)"
       id="g4211"
       style="fill:none;stroke:#000000;stroke-width:3.18132639;stroke-opacity:1"
       clip-path="none" />
    <g
       style="fill:none;stroke:#000000;stroke-width:3.18132639;stroke-opacity:1"
       id="g4227"
       transform="matrix(0.07348588,0,0,0.07370838,-248.01731,214.23848)" />
    <path
       style="fill:#000000;stroke:none;stroke-width:1"
       d="m 12.898825,61.339964 c 0,-0.55606 -0.03079,-0.95769 -0.03079,-1.51377 1.149566,0 2.395148,0 3.544708,0 0,-1.32181 0,-1.41529 0,-2.73713 -2.243931,0.0723 -4.67246,0.23894 -6.7739019,-0.687 -1.6266179,-0.89273 -2.0754481,-2.97087 -1.7474947,-4.67934 0.2807048,-1.92755 1.3522742,-3.63929 2.7501936,-4.95763 1.819108,-1.94578 4.139071,-3.25931 6.561151,-4.31616 2.472354,1.07474 4.843466,2.43124 6.685643,4.4283 1.659299,1.55933 2.764852,3.76316 2.730888,6.07061 0.03599,1.66549 -0.995685,3.42547 -2.697384,3.78891 -1.903705,0.52718 -3.830472,0.43364 -5.784745,0.35231 0,1.32184 0,1.41532 0,2.73713 1.14956,0 2.203119,0 3.352688,0 0,0.55608 0.03079,0.95771 0.03079,1.51377 -2.632285,-0.0186 -5.778625,-0.0186 -8.621752,0 z"
       id="path2985-3-11"
       inkscape:connector-curvature="0"
       sodipodi:nodetypes="cccccccccccccccc" />
    <path
       style="fill:#000000;stroke:none;stroke-width:1"
       d="m 212.48766,271.66008 c 0,0.55606 -0.0308,0.95768 -0.0308,1.51377 1.14955,0 2.39513,0 3.54471,0 0,1.32181 0,1.41529 0,2.73712 -2.24393,-0.0723 -4.67248,-0.23894 -6.77391,0.68701 -1.62662,0.8927 -2.07544,2.9709 -1.7475,4.6793 0.28071,1.9276 1.35228,3.6393 2.75018,4.9577 1.81912,1.9457 4.13909,3.2593 6.56117,4.3161 2.47236,-1.0747 4.84346,-2.4312 6.68564,-4.4283 1.65931,-1.5593 2.76487,-3.7632 2.73088,-6.0706 0.036,-1.6655 -0.99569,-3.42546 -2.69737,-3.78889 -1.90372,-0.52718 -3.83047,-0.43364 -5.78475,-0.35232 0,-1.32183 0,-1.41531 0,-2.73712 1.14955,0 2.20314,0 3.35269,0 0,-0.55609 0.0307,-0.95771 0.0307,-1.51377 -2.63231,0.0186 -5.77863,0.0186 -8.62177,0 z"
       id="path2985-3-11-7"
       inkscape:connector-curvature="0"
       sodipodi:nodetypes="cccccccccccccccc" />
    <g
       id="text3755-0"
       style="font-style:normal;font-variant:normal;font-weight:bold;font-stretch:normal;line-height:0%;font-family:'Levenim MT';-inkscape-font-specification:'Sans Bold';letter-spacing:0px;word-spacing:0px;fill:#000000;fill-opacity:1;stroke:none;stroke-width:3.18132639"
       transform="matrix(0.2610688,0,0,0.37846751,0.25934399,0.25896407)"
       aria-label="A">
      <path
         inkscape:connector-curvature="0"
         id="path992"
         style="font-size:104.24028015px;line-height:1.25;stroke-width:3.18132639"
         d="M 100.97259,94.837608 H 86.161107 L 80.307771,79.41534 H 49.768626 L 43.660797,94.837608 H 28.849312 L 57.708804,19.965806 H 72.163999 Z M 74.96342,65.52003 65.038198,39.81625 55.062078,65.52003 Z" />
    </g>
    <g
       id="text3755-2-2"
       style="font-style:normal;font-variant:normal;font-weight:bold;font-stretch:normal;line-height:0%;font-family:'Levenim MT';-inkscape-font-specification:'Sans Bold';letter-spacing:0px;word-spacing:0px;fill:#000000;fill-opacity:1;stroke:none;stroke-width:3.18132639"
       transform="matrix(-0.26106882,0,0,-0.37846748,0.25934399,0.25896407)"
       aria-label="A">
      <path
         inkscape:connector-curvature="0"
         id="path995"
         style="font-size:104.24028015px;line-height:1.25;stroke-width:3.18132639"
         d="m -793.35602,-783.65826 h -14.81148 l -5.85334,-15.42227 h -30.53914 l -6.10783,15.42227 h -14.81149 l 28.85949,-74.87181 h 14.4552 z m -26.00917,-29.31758 -9.92522,-25.70378 -9.97612,25.70378 z" />
    </g>
  </g>
</svg>
